<svg width="194" height="62" viewBox="0 0 194 62" fill="none" xmlns="http://www.w3.org/2000/svg">
<path d="M51.3004 25.3606C51.2036 25.0704 50.994 24.8297 50.7173 24.6911C50.4406 24.5524 50.1193 24.5271 49.8237 24.6205L46.5088 25.6797L47.3158 23.7628C47.3747 23.623 47.405 23.4732 47.405 23.3219C47.4049 23.1706 47.3746 23.0207 47.3157 22.8809C47.2568 22.7412 47.1705 22.6142 47.0617 22.5072C46.9528 22.4002 46.8237 22.3153 46.6815 22.2575C46.5393 22.1996 46.3869 22.1698 46.2331 22.1698C46.0792 22.1698 45.9268 22.1996 45.7847 22.2576C45.6425 22.3155 45.5134 22.4004 45.4046 22.5074C45.2958 22.6144 45.2095 22.7414 45.1506 22.8812L43.578 26.6162L40.7469 27.5207L41.8858 20.9909C41.9227 20.779 41.8985 20.5611 41.8161 20.362C41.7336 20.1629 41.5962 19.9904 41.4193 19.8641C41.2424 19.7377 41.033 19.6626 40.815 19.6471C40.5969 19.6316 40.3788 19.6764 40.1852 19.7764L34.221 22.8598V19.9585L37.4002 17.2897C37.6366 17.0912 37.7831 16.8085 37.8075 16.5038C37.832 16.1991 37.7323 15.8973 37.5305 15.6649C37.3286 15.4324 37.0411 15.2884 36.7313 15.2643C36.4214 15.2403 36.1145 15.3383 35.8781 15.5368L34.221 16.9282V13.4737C34.221 13.168 34.0976 12.8749 33.8778 12.6588C33.658 12.4427 33.3599 12.3213 33.0491 12.3213C32.7383 12.3213 32.4403 12.4427 32.2205 12.6588C32.0007 12.8749 31.8773 13.168 31.8773 13.4737V16.9284L30.2199 15.5371C29.9836 15.3386 29.6767 15.2406 29.3669 15.2646C29.0571 15.2886 28.7696 15.4326 28.5678 15.665C28.3659 15.8974 28.2662 16.1992 28.2906 16.5039C28.315 16.8085 28.4615 17.0912 28.6979 17.2897L31.8773 19.9585V22.8598L25.9124 19.7764C25.7189 19.6765 25.5008 19.6317 25.2827 19.6472C25.0647 19.6628 24.8554 19.738 24.6785 19.8643C24.5017 19.9907 24.3643 20.1632 24.2819 20.3623C24.1995 20.5614 24.1754 20.7792 24.2122 20.9911L25.3509 27.5205L24.7955 27.3432C24.5 27.2496 24.1788 27.2751 23.9024 27.414C23.6261 27.553 23.4171 27.7942 23.3213 28.0846C23.2255 28.3749 23.2508 28.6908 23.3917 28.9628C23.5325 29.2349 23.7773 29.4408 24.0724 29.5356L24.6282 29.7129L23.6165 30.6827C23.4505 30.8418 23.3363 31.0457 23.2882 31.2686C23.2401 31.4915 23.2602 31.7235 23.3462 31.9351C23.4321 32.1468 23.58 32.3286 23.771 32.4576C23.962 32.5866 24.1877 32.657 24.4194 32.6599C24.5738 32.6653 24.7276 32.639 24.871 32.5827C25.0144 32.5264 25.1444 32.4413 25.2525 32.3329L27.1463 30.5175L31.1529 31.7977L28.6913 35.1296L25.5796 34.5809C25.4281 34.5542 25.2728 34.5571 25.1224 34.5894C24.9721 34.6218 24.8297 34.6829 24.7033 34.7694C24.577 34.8558 24.4693 34.9659 24.3862 35.0933C24.3031 35.2207 24.2464 35.3629 24.2192 35.5119C24.1921 35.6609 24.195 35.8136 24.2279 35.9615C24.2608 36.1093 24.323 36.2493 24.4109 36.3736C24.4988 36.4978 24.6107 36.6037 24.7403 36.6854C24.8699 36.7671 25.0145 36.8229 25.166 36.8496L27.1605 37.2011L26.7549 37.7501C26.6644 37.8725 26.5994 38.0113 26.5634 38.1585C26.5275 38.3057 26.5214 38.4584 26.5455 38.6079C26.5696 38.7574 26.6234 38.9008 26.7039 39.0298C26.7844 39.1589 26.8899 39.2711 27.0145 39.36C27.2686 39.5315 27.58 39.6007 27.8844 39.5532C28.1888 39.5058 28.4632 39.3454 28.651 39.105L29.0156 38.6114L31.9984 44.5543C32.0952 44.7471 32.2449 44.9094 32.4307 45.0229C32.6164 45.1363 32.8307 45.1965 33.0494 45.1964C33.268 45.1964 33.4823 45.1362 33.668 45.0227C33.8537 44.9092 34.0034 44.7469 34.1002 44.5541L37.0825 38.6114L38.809 40.9483L37.8392 44.918C37.8033 45.0652 37.7971 45.2178 37.8212 45.3673C37.8452 45.5167 37.899 45.6601 37.9793 45.7891C38.0597 45.9181 38.1652 46.0303 38.2896 46.1193C38.4141 46.2083 38.5552 46.2722 38.7048 46.3076C38.8545 46.3429 39.0097 46.349 39.1617 46.3253C39.3137 46.3017 39.4594 46.2488 39.5907 46.1698C39.7219 46.0907 39.836 45.9871 39.9265 45.8647C40.0169 45.7423 40.082 45.6035 40.118 45.4564L40.6206 43.4L42.692 46.2038C42.8282 46.3882 43.017 46.5287 43.2344 46.6076C43.4519 46.6865 43.6882 46.7002 43.9136 46.6469C44.139 46.5937 44.3432 46.476 44.5006 46.3086C44.6579 46.1413 44.7612 45.9318 44.7974 45.7067C44.822 45.5572 44.8161 45.4044 44.7801 45.2572C44.7442 45.1099 44.6789 44.9712 44.588 44.8489L42.4949 42.0162L44.6979 42.1862C45.0078 42.2098 45.3145 42.1114 45.5506 41.9127C45.7868 41.7139 45.9329 41.431 45.957 41.1263C45.981 40.8216 45.8809 40.52 45.6788 40.2878C45.4767 40.0556 45.189 39.9119 44.8792 39.8882L40.6835 39.5641L38.9793 37.2574L45.6468 36.3047C45.8632 36.2738 46.0665 36.184 46.2337 36.0454C46.4009 35.9068 46.5253 35.725 46.5929 35.5205C46.6605 35.316 46.6685 35.097 46.6161 34.8882C46.5637 34.6794 46.453 34.4893 46.2964 34.3392L41.4702 29.7129L44.217 28.8356L47.8393 31.019C47.9705 31.0981 48.1162 31.151 48.2682 31.1747C48.4202 31.1984 48.5754 31.1924 48.725 31.1571C48.8747 31.1219 49.0158 31.0579 49.1403 30.969C49.2648 30.8801 49.3703 30.768 49.4507 30.639C49.5312 30.51 49.585 30.3666 49.6091 30.2172C49.6332 30.0677 49.6271 29.9151 49.5912 29.768C49.5553 29.6208 49.4903 29.4821 49.3999 29.3596C49.3095 29.2372 49.1954 29.1335 49.0643 29.0544L47.1476 27.8989L50.5479 26.8127C50.8432 26.7179 51.0883 26.5118 51.2293 26.2396C51.3704 25.9674 51.396 25.6513 51.3004 25.3606ZM31.8773 25.4636V29.6058L27.8694 28.3254L26.9238 22.9028L31.8773 25.4636ZM38.9518 30.5175L42.9602 34.3597L37.4229 35.1508L34.9454 31.7977L38.9518 30.5175ZM34.221 29.6056V25.4634L39.1743 22.9031L38.2288 28.3251L34.221 29.6056ZM35.5261 36.5048L33.0492 41.4403L30.572 36.5048L33.0492 33.1522L35.5261 36.5048Z" fill="#69E9FE"/>
<path d="M22.7939 35.9574V10.045C22.7945 9.48213 22.6823 8.92469 22.4636 8.40452C22.245 7.88435 21.9243 7.41166 21.5197 7.01346C21.1152 6.61526 20.6348 6.29937 20.1061 6.08385C19.5773 5.86832 19.0105 5.75739 18.4382 5.75739C17.8658 5.75739 17.299 5.86832 16.7702 6.08385C16.2415 6.29937 15.7611 6.61526 15.3566 7.01346C14.9521 7.41166 14.6313 7.88435 14.4127 8.40452C14.1941 8.92469 14.0818 9.48213 14.0824 10.045V35.9569C12.575 36.7279 11.3133 37.893 10.4361 39.3239C9.55897 40.7548 9.10046 42.396 9.11108 44.0668C9.11086 45.6915 9.54955 47.2872 10.3823 48.6905C11.215 50.0938 12.4119 51.2544 13.8504 52.0536C15.289 52.8528 16.9177 53.2619 18.5698 53.239C20.2219 53.2162 21.8382 52.7621 23.2533 51.9234C24.6684 51.0847 25.8316 49.8915 26.6238 48.4656C27.416 47.0398 27.8089 45.4327 27.7621 43.8086C27.7154 42.1845 27.2308 40.6017 26.3578 39.2223C25.4849 37.8428 24.255 36.7161 22.7939 35.9574Z" fill="#EAEAEA"/>
<path d="M19.6104 37.3749V22.8155C19.6104 22.5099 19.4869 22.2168 19.2671 22.0007C19.0474 21.7846 18.7493 21.6632 18.4385 21.6632C18.1277 21.6632 17.8296 21.7846 17.6098 22.0007C17.3901 22.2168 17.2666 22.5099 17.2666 22.8155V37.3749C15.5617 37.6635 14.0291 38.5708 12.9718 39.9173C11.9145 41.2637 11.4095 42.9513 11.5568 44.6463C11.7041 46.3413 12.4929 47.9202 13.7672 49.0707C15.0415 50.2213 16.7085 50.8597 18.4385 50.8597C20.1685 50.8597 21.8355 50.2213 23.1097 49.0707C24.384 47.9202 25.1728 46.3413 25.3201 44.6463C25.4674 42.9513 24.9625 41.2637 23.9052 39.9173C22.8479 38.5708 21.3153 37.6635 19.6104 37.3749Z" fill="#33D1EA"/>
<path d="M18.4385 49.0144C17.4433 49.0144 16.4705 48.7242 15.6431 48.1805C14.8157 47.6368 14.1708 46.8641 13.79 45.96C13.4091 45.0559 13.3095 44.0611 13.5037 43.1013C13.6979 42.1415 14.1771 41.2599 14.8808 40.568C15.5845 39.876 16.4811 39.4048 17.4571 39.2139C18.4331 39.0231 19.4448 39.1211 20.3642 39.4956C21.2836 39.8701 22.0695 40.5043 22.6223 41.3179C23.1752 42.1316 23.4703 43.0882 23.4702 44.0668C23.4687 45.3786 22.9381 46.6362 21.9948 47.5637C21.0515 48.4912 19.7725 49.013 18.4385 49.0144ZM18.4385 49.0144C17.4433 49.0144 16.4705 48.7242 15.6431 48.1805C14.8157 47.6368 14.1708 46.8641 13.79 45.96C13.4091 45.0559 13.3095 44.0611 13.5037 43.1013C13.6979 42.1415 14.1771 41.2599 14.8808 40.568C15.5845 39.876 16.4811 39.4048 17.4571 39.2139C18.4331 39.0231 19.4448 39.1211 20.3642 39.4956C21.2836 39.8701 22.0695 40.5043 22.6223 41.3179C23.1752 42.1316 23.4703 43.0882 23.4702 44.0668C23.4687 45.3786 22.9381 46.6362 21.9948 47.5637C21.0515 48.4912 19.7725 49.013 18.4385 49.0144Z" fill="#9FEFF3"/>
<path d="M61.664 40.704C62.6 40.56 63.236 40.284 63.572 39.876C63.932 39.444 64.112 38.712 64.112 37.68L64.148 22.56C64.148 21.792 64.052 21.276 63.86 21.012C63.692 20.748 63.344 20.616 62.816 20.616C62.576 20.616 62.336 20.628 62.096 20.652C61.856 20.676 61.688 20.688 61.592 20.688L61.52 20.544L61.772 18.96C62.06 18.984 62.6 19.008 63.392 19.032C64.184 19.056 64.988 19.068 65.804 19.068C66.452 19.068 67.184 19.032 68 18.96C68.84 18.864 69.392 18.792 69.656 18.744L69.512 20.364C68.72 20.46 68.168 20.616 67.856 20.832C67.568 21.048 67.388 21.3 67.316 21.588C67.268 21.876 67.208 22.584 67.136 23.712C66.992 25.752 66.884 28.08 66.812 30.696C66.74 33.312 66.704 35.616 66.704 37.608C66.704 38.472 66.776 39.096 66.92 39.48C67.064 39.84 67.328 40.08 67.712 40.2C68.12 40.32 68.804 40.38 69.764 40.38C71.228 40.38 72.296 40.26 72.968 40.02C73.664 39.78 74.18 39.312 74.516 38.616C74.876 37.92 75.2 36.804 75.488 35.268L77.072 35.088L77.18 35.268C77.108 35.652 76.952 36.516 76.712 37.86C76.496 39.204 76.304 40.62 76.136 42.108L75.956 42.324C75.26 42.276 73.82 42.204 71.636 42.108C69.476 42.036 67.688 42 66.272 42C65.144 42 64.112 42.048 63.176 42.144C62.264 42.24 61.688 42.312 61.448 42.36L61.664 40.704ZM83.4021 42.432C82.6341 42.432 81.9261 42.372 81.2781 42.252C80.6541 42.156 80.1621 42.048 79.8021 41.928C79.4421 41.808 79.2141 41.724 79.1181 41.676L79.0101 41.424C79.0821 41.064 79.1661 40.32 79.2621 39.192C79.3581 38.064 79.4181 37.2 79.4421 36.6L80.7021 36.42C80.7021 38.004 80.9661 39.12 81.4941 39.768C82.0221 40.416 82.9221 40.74 84.1941 40.74C85.1061 40.74 85.8741 40.536 86.4981 40.128C87.1221 39.72 87.4341 39.216 87.4341 38.616C87.4341 38.016 87.1461 37.476 86.5701 36.996C86.0181 36.492 84.9141 35.796 83.2581 34.908C81.8901 34.212 80.8941 33.504 80.2701 32.784C79.6461 32.064 79.3341 31.272 79.3341 30.408C79.3341 29.448 79.6221 28.584 80.1981 27.816C80.7741 27.024 81.5661 26.412 82.5741 25.98C83.5821 25.524 84.7101 25.296 85.9581 25.296C86.5341 25.296 87.0861 25.344 87.6141 25.44C88.1421 25.512 88.5741 25.596 88.9101 25.692C89.2461 25.788 89.4621 25.848 89.5581 25.872L89.6301 26.052C89.5821 26.292 89.4741 26.844 89.3061 27.708C89.1381 28.548 89.0181 29.46 88.9461 30.444L87.6141 30.552C87.6141 30.48 87.6261 30.336 87.6501 30.12C87.6741 29.904 87.6861 29.7 87.6861 29.508C87.6861 28.644 87.4461 28.02 86.9661 27.636C86.5101 27.228 85.7661 27.024 84.7341 27.024C83.9181 27.024 83.2221 27.216 82.6461 27.6C82.0941 27.984 81.8181 28.452 81.8181 29.004C81.8181 29.58 82.0581 30.12 82.5381 30.624C83.0421 31.128 83.8461 31.668 84.9501 32.244C86.8941 33.276 88.2141 34.152 88.9101 34.872C89.6301 35.568 89.9901 36.372 89.9901 37.284C89.9901 38.196 89.6901 39.048 89.0901 39.84C88.4901 40.632 87.6741 41.268 86.6421 41.748C85.6341 42.204 84.5541 42.432 83.4021 42.432ZM117.299 42.576C116.699 42.576 116.051 42.276 115.355 41.676C114.683 41.052 114.059 40.212 113.483 39.156L109.631 32.172H106.643L106.535 37.536C106.535 38.448 106.595 39.108 106.715 39.516C106.835 39.9 107.063 40.164 107.399 40.308C107.735 40.428 108.311 40.488 109.127 40.488L109.199 40.632L108.875 42.144C108.587 42.12 108.011 42.096 107.147 42.072C106.283 42.048 105.383 42.036 104.447 42.036C103.607 42.036 102.863 42.048 102.215 42.072C101.567 42.096 101.135 42.12 100.919 42.144L101.243 40.524C102.011 40.428 102.587 40.296 102.971 40.128C103.355 39.96 103.619 39.696 103.763 39.336C103.907 38.952 103.979 38.4 103.979 37.68L104.015 22.56C104.015 21.792 103.919 21.276 103.727 21.012C103.559 20.748 103.211 20.616 102.683 20.616C102.443 20.616 102.203 20.628 101.963 20.652C101.723 20.676 101.555 20.688 101.459 20.688L101.387 20.544L101.639 18.96C101.927 18.984 102.467 19.008 103.259 19.032C104.051 19.056 104.843 19.068 105.635 19.068C106.451 19.068 107.303 19.056 108.191 19.032C109.103 18.984 109.727 18.948 110.063 18.924C112.295 18.924 114.059 19.428 115.355 20.436C116.651 21.444 117.299 22.824 117.299 24.576C117.299 26.016 116.831 27.336 115.895 28.536C114.983 29.736 113.687 30.72 112.007 31.488L115.967 37.752C116.663 38.904 117.335 39.708 117.983 40.164C118.655 40.596 119.471 40.812 120.431 40.812L120.575 40.956L120.359 42.18L117.299 42.576ZM110.423 30.516C110.423 30.588 110.783 30.432 111.503 30.048C112.223 29.664 112.871 29.076 113.447 28.284C114.023 27.492 114.311 26.472 114.311 25.224C114.311 22.056 112.115 20.472 107.723 20.472C107.483 20.472 107.315 20.532 107.219 20.652C107.147 20.748 107.099 20.964 107.075 21.3C106.859 24.972 106.739 27.924 106.715 30.156L110.423 30.516ZM128.641 42.432C127.153 42.432 125.833 42.108 124.681 41.46C123.529 40.788 122.641 39.852 122.017 38.652C121.393 37.428 121.081 36.036 121.081 34.476C121.081 32.868 121.441 31.356 122.161 29.94C122.905 28.524 123.889 27.396 125.113 26.556C126.337 25.716 127.645 25.296 129.037 25.296C130.789 25.296 132.121 25.74 133.033 26.628C133.945 27.516 134.401 28.812 134.401 30.516C134.401 31.212 134.329 31.8 134.185 32.28L133.717 32.712H123.781C123.757 35.04 124.213 36.84 125.149 38.112C126.109 39.36 127.441 39.984 129.145 39.984C130.489 39.984 131.953 39.612 133.537 38.868L133.753 38.94L134.149 39.984C133.285 40.608 132.325 41.172 131.269 41.676C130.237 42.18 129.361 42.432 128.641 42.432ZM130.441 31.056C130.801 31.008 131.041 30.924 131.161 30.804C131.281 30.684 131.341 30.444 131.341 30.084C131.341 29.124 131.077 28.392 130.549 27.888C130.045 27.384 129.313 27.132 128.353 27.132C127.225 27.132 126.253 27.516 125.437 28.284C124.645 29.052 124.141 30.084 123.925 31.38L130.441 31.056ZM144.778 42.432C143.29 42.432 141.97 42.108 140.818 41.46C139.666 40.788 138.778 39.852 138.154 38.652C137.53 37.428 137.218 36.036 137.218 34.476C137.218 32.868 137.578 31.356 138.298 29.94C139.042 28.524 140.026 27.396 141.25 26.556C142.474 25.716 143.782 25.296 145.174 25.296C146.926 25.296 148.258 25.74 149.17 26.628C150.082 27.516 150.538 28.812 150.538 30.516C150.538 31.212 150.466 31.8 150.322 32.28L149.854 32.712H139.918C139.894 35.04 140.35 36.84 141.286 38.112C142.246 39.36 143.578 39.984 145.282 39.984C146.626 39.984 148.09 39.612 149.674 38.868L149.89 38.94L150.286 39.984C149.422 40.608 148.462 41.172 147.406 41.676C146.374 42.18 145.498 42.432 144.778 42.432ZM146.578 31.056C146.938 31.008 147.178 30.924 147.298 30.804C147.418 30.684 147.478 30.444 147.478 30.084C147.478 29.124 147.214 28.392 146.686 27.888C146.182 27.384 145.45 27.132 144.49 27.132C143.362 27.132 142.39 27.516 141.574 28.284C140.782 29.052 140.278 30.084 140.062 31.38L146.578 31.056ZM153.895 40.74C155.263 40.548 155.947 39.84 155.947 38.616V28.896C155.923 28.32 155.755 27.948 155.443 27.78C155.155 27.588 154.567 27.468 153.679 27.42L153.535 27.204L153.787 25.98L155.947 25.584V25.44C155.947 23.376 156.283 21.576 156.955 20.04C157.651 18.504 158.611 17.328 159.835 16.512C161.083 15.696 162.547 15.288 164.227 15.288C164.947 15.288 165.607 15.336 166.207 15.432C166.831 15.528 167.311 15.636 167.647 15.756C168.007 15.852 168.235 15.924 168.331 15.972L168.403 16.296C168.331 16.416 168.175 16.704 167.935 17.16C167.719 17.592 167.503 18.084 167.287 18.636L166.891 18.744C166.795 18.672 166.555 18.528 166.171 18.312C165.811 18.096 165.319 17.892 164.695 17.7C164.095 17.508 163.447 17.412 162.751 17.412C161.383 17.412 160.363 17.964 159.691 19.068C159.019 20.148 158.659 21.816 158.611 24.072L158.575 25.836C159.823 25.836 160.891 25.824 161.779 25.8C162.667 25.776 163.255 25.752 163.543 25.728L163.651 25.836L163.291 27.744C163.027 27.72 162.463 27.696 161.599 27.672C160.759 27.648 159.739 27.636 158.539 27.636L158.395 38.472C158.395 39.144 158.539 39.648 158.827 39.984C159.139 40.296 159.607 40.452 160.231 40.452C160.807 40.452 161.275 40.44 161.635 40.416C162.019 40.392 162.271 40.38 162.391 40.38L162.463 40.524L162.211 42.072C161.875 42.072 161.263 42.06 160.375 42.036C159.487 42.012 158.611 42 157.747 42C156.907 42 156.079 42.012 155.263 42.036C154.471 42.084 153.955 42.12 153.715 42.144L153.895 40.74ZM172.165 42.432C170.677 42.432 169.357 42.108 168.205 41.46C167.053 40.788 166.165 39.852 165.541 38.652C164.917 37.428 164.605 36.036 164.605 34.476C164.605 32.868 164.965 31.356 165.685 29.94C166.429 28.524 167.413 27.396 168.637 26.556C169.861 25.716 171.169 25.296 172.561 25.296C174.313 25.296 175.645 25.74 176.557 26.628C177.469 27.516 177.925 28.812 177.925 30.516C177.925 31.212 177.853 31.8 177.709 32.28L177.241 32.712H167.305C167.281 35.04 167.737 36.84 168.673 38.112C169.633 39.36 170.965 39.984 172.669 39.984C174.013 39.984 175.477 39.612 177.061 38.868L177.277 38.94L177.673 39.984C176.809 40.608 175.849 41.172 174.793 41.676C173.761 42.18 172.885 42.432 172.165 42.432ZM173.965 31.056C174.325 31.008 174.565 30.924 174.685 30.804C174.805 30.684 174.865 30.444 174.865 30.084C174.865 29.124 174.601 28.392 174.073 27.888C173.569 27.384 172.837 27.132 171.877 27.132C170.749 27.132 169.777 27.516 168.961 28.284C168.169 29.052 167.665 30.084 167.449 31.38L173.965 31.056ZM181.569 40.704C182.289 40.632 182.769 40.404 183.009 40.02C183.249 39.612 183.369 38.844 183.369 37.716V29.796C183.369 29.004 183.261 28.44 183.045 28.104C182.829 27.768 182.481 27.6 182.001 27.6C181.809 27.6 181.641 27.612 181.497 27.636C181.377 27.66 181.293 27.684 181.245 27.708L181.065 27.456L181.173 26.34C182.085 26.172 183.045 25.968 184.053 25.728C185.085 25.488 185.745 25.332 186.033 25.26L186.285 25.476C186.237 25.692 186.165 26.196 186.069 26.988C185.973 27.756 185.937 28.488 185.961 29.184L186.105 29.292C186.825 28.164 187.665 27.24 188.625 26.52C189.609 25.8 190.461 25.44 191.181 25.44C191.517 25.44 191.769 25.464 191.937 25.512C192.129 25.536 192.249 25.56 192.297 25.584L192.405 25.728C192.357 26.064 192.249 26.784 192.081 27.888C191.937 28.968 191.853 29.964 191.829 30.876L190.425 30.984C190.425 30 190.353 29.352 190.209 29.04C190.089 28.704 189.837 28.536 189.453 28.536C188.925 28.536 188.361 28.764 187.761 29.22C187.161 29.652 186.609 30.24 186.105 30.984C186.081 31.68 186.033 32.832 185.961 34.44C185.889 36.048 185.841 37.344 185.817 38.328C185.817 39.144 185.937 39.696 186.177 39.984C186.417 40.272 186.873 40.416 187.545 40.416C187.857 40.416 188.169 40.404 188.481 40.38C188.793 40.356 189.009 40.344 189.129 40.344L189.165 40.488L188.841 42.072C188.601 42.072 188.121 42.06 187.401 42.036C186.681 42.012 185.937 42 185.169 42C184.281 42 183.477 42.012 182.757 42.036C182.037 42.084 181.581 42.12 181.389 42.144L181.569 40.704Z" fill="url(#paint0_linear)"/>
<path d="M149.736 56.192C149.395 56.192 149.08 56.1653 148.792 56.112C148.515 56.0693 148.296 56.0213 148.136 55.968C147.976 55.9147 147.875 55.8773 147.832 55.856L147.784 55.744C147.816 55.584 147.853 55.2533 147.896 54.752C147.939 54.2507 147.965 53.8667 147.976 53.6L148.536 53.52C148.536 54.224 148.653 54.72 148.888 55.008C149.123 55.296 149.523 55.44 150.088 55.44C150.493 55.44 150.835 55.3493 151.112 55.168C151.389 54.9867 151.528 54.7627 151.528 54.496C151.528 54.2293 151.4 53.9893 151.144 53.776C150.899 53.552 150.408 53.2427 149.672 52.848C149.064 52.5387 148.621 52.224 148.344 51.904C148.067 51.584 147.928 51.232 147.928 50.848C147.928 50.4213 148.056 50.0373 148.312 49.696C148.568 49.344 148.92 49.072 149.368 48.88C149.816 48.6773 150.317 48.576 150.872 48.576C151.128 48.576 151.373 48.5973 151.608 48.64C151.843 48.672 152.035 48.7093 152.184 48.752C152.333 48.7947 152.429 48.8213 152.472 48.832L152.504 48.912C152.483 49.0187 152.435 49.264 152.36 49.648C152.285 50.0213 152.232 50.4267 152.2 50.864L151.608 50.912C151.608 50.88 151.613 50.816 151.624 50.72C151.635 50.624 151.64 50.5333 151.64 50.448C151.64 50.064 151.533 49.7867 151.32 49.616C151.117 49.4347 150.787 49.344 150.328 49.344C149.965 49.344 149.656 49.4293 149.4 49.6C149.155 49.7707 149.032 49.9787 149.032 50.224C149.032 50.48 149.139 50.72 149.352 50.944C149.576 51.168 149.933 51.408 150.424 51.664C151.288 52.1227 151.875 52.512 152.184 52.832C152.504 53.1413 152.664 53.4987 152.664 53.904C152.664 54.3093 152.531 54.688 152.264 55.04C151.997 55.392 151.635 55.6747 151.176 55.888C150.728 56.0907 150.248 56.192 149.736 56.192ZM154.014 59.856C153.928 59.856 153.79 59.728 153.598 59.472C153.405 59.2267 153.309 59.0507 153.309 58.944L153.389 58.832C153.987 58.832 154.542 58.5813 155.054 58.08C155.576 57.5893 156.024 56.896 156.398 56C155.576 53.3973 154.915 51.4347 154.414 50.112C154.318 49.8453 154.179 49.6533 153.998 49.536C153.827 49.4187 153.603 49.3547 153.325 49.344L153.293 49.28L153.389 48.752L154.718 48.768C155.112 48.768 155.502 48.752 155.886 48.72C156.28 48.688 156.531 48.6667 156.638 48.656L156.67 48.736L156.574 49.232C156.211 49.2427 155.966 49.28 155.838 49.344C155.72 49.3973 155.662 49.4987 155.662 49.648C155.662 49.8187 155.763 50.2613 155.966 50.976C156.179 51.6907 156.398 52.4053 156.622 53.12C156.846 53.824 156.995 54.2827 157.07 54.496H157.134C158.36 51.5627 158.974 49.968 158.974 49.712C158.974 49.4347 158.771 49.296 158.366 49.296H157.63L157.598 49.232L157.694 48.704C157.79 48.7147 158.003 48.7307 158.334 48.752C158.664 48.7627 158.995 48.768 159.326 48.768L160.686 48.752L160.574 49.344C160.339 49.3867 160.158 49.472 160.03 49.6C159.912 49.7173 159.795 49.936 159.678 50.256L157.646 55.12C157.091 56.464 156.638 57.4613 156.286 58.112C155.934 58.7627 155.587 59.216 155.246 59.472C154.904 59.7387 154.494 59.8667 154.014 59.856ZM163.314 56.192C162.973 56.192 162.658 56.1653 162.37 56.112C162.093 56.0693 161.874 56.0213 161.714 55.968C161.554 55.9147 161.453 55.8773 161.41 55.856L161.362 55.744C161.394 55.584 161.431 55.2533 161.474 54.752C161.517 54.2507 161.543 53.8667 161.554 53.6L162.114 53.52C162.114 54.224 162.231 54.72 162.466 55.008C162.701 55.296 163.101 55.44 163.666 55.44C164.071 55.44 164.413 55.3493 164.69 55.168C164.967 54.9867 165.106 54.7627 165.106 54.496C165.106 54.2293 164.978 53.9893 164.722 53.776C164.477 53.552 163.986 53.2427 163.25 52.848C162.642 52.5387 162.199 52.224 161.922 51.904C161.645 51.584 161.506 51.232 161.506 50.848C161.506 50.4213 161.634 50.0373 161.89 49.696C162.146 49.344 162.498 49.072 162.946 48.88C163.394 48.6773 163.895 48.576 164.45 48.576C164.706 48.576 164.951 48.5973 165.186 48.64C165.421 48.672 165.613 48.7093 165.762 48.752C165.911 48.7947 166.007 48.8213 166.05 48.832L166.082 48.912C166.061 49.0187 166.013 49.264 165.938 49.648C165.863 50.0213 165.81 50.4267 165.778 50.864L165.186 50.912C165.186 50.88 165.191 50.816 165.202 50.72C165.213 50.624 165.218 50.5333 165.218 50.448C165.218 50.064 165.111 49.7867 164.898 49.616C164.695 49.4347 164.365 49.344 163.906 49.344C163.543 49.344 163.234 49.4293 162.978 49.6C162.733 49.7707 162.61 49.9787 162.61 50.224C162.61 50.48 162.717 50.72 162.93 50.944C163.154 51.168 163.511 51.408 164.002 51.664C164.866 52.1227 165.453 52.512 165.762 52.832C166.082 53.1413 166.242 53.4987 166.242 53.904C166.242 54.3093 166.109 54.688 165.842 55.04C165.575 55.392 165.213 55.6747 164.754 55.888C164.306 56.0907 163.826 56.192 163.314 56.192ZM170.312 56.192C169.586 56.192 169.074 56.048 168.776 55.76C168.477 55.4613 168.328 54.96 168.328 54.256V50.32C168.328 50.032 168.264 49.8293 168.136 49.712C168.008 49.5947 167.768 49.5307 167.416 49.52L167.352 49.424L167.432 48.944C167.741 48.7947 168.04 48.6133 168.328 48.4C168.626 48.176 168.866 47.984 169.048 47.824C169.24 47.6533 169.362 47.5413 169.416 47.488L169.736 47.616C169.725 47.6693 169.709 47.7973 169.688 48C169.666 48.2027 169.64 48.4747 169.608 48.816L171.96 48.768L172.008 48.816L171.864 49.664L169.544 49.616C169.469 50.7893 169.432 52.1227 169.432 53.616C169.432 54.16 169.522 54.544 169.704 54.768C169.896 54.992 170.221 55.104 170.68 55.104C170.84 55.104 171 55.0827 171.16 55.04C171.32 54.9973 171.453 54.9547 171.56 54.912C171.666 54.8587 171.736 54.8267 171.768 54.816L171.928 55.232C171.864 55.2853 171.725 55.3867 171.512 55.536C171.309 55.6853 171.085 55.8347 170.84 55.984C170.605 56.1227 170.429 56.192 170.312 56.192ZM176.233 56.192C175.572 56.192 174.985 56.048 174.473 55.76C173.961 55.4613 173.566 55.0453 173.289 54.512C173.012 53.968 172.873 53.3493 172.873 52.656C172.873 51.9413 173.033 51.2693 173.353 50.64C173.684 50.0107 174.121 49.5093 174.665 49.136C175.209 48.7627 175.79 48.576 176.409 48.576C177.188 48.576 177.78 48.7733 178.185 49.168C178.59 49.5627 178.793 50.1387 178.793 50.896C178.793 51.2053 178.761 51.4667 178.697 51.68L178.489 51.872H174.073C174.062 52.9067 174.265 53.7067 174.681 54.272C175.108 54.8267 175.7 55.104 176.457 55.104C177.054 55.104 177.705 54.9387 178.409 54.608L178.505 54.64L178.681 55.104C178.297 55.3813 177.87 55.632 177.401 55.856C176.942 56.08 176.553 56.192 176.233 56.192ZM177.033 51.136C177.193 51.1147 177.3 51.0773 177.353 51.024C177.406 50.9707 177.433 50.864 177.433 50.704C177.433 50.2773 177.316 49.952 177.081 49.728C176.857 49.504 176.532 49.392 176.105 49.392C175.604 49.392 175.172 49.5627 174.809 49.904C174.457 50.2453 174.233 50.704 174.137 51.28L177.033 51.136ZM184.669 55.536C184.989 55.4507 185.218 55.328 185.357 55.168C185.495 54.9973 185.565 54.7733 185.565 54.496L185.629 51.328C185.629 50.7947 185.511 50.384 185.277 50.096C185.053 49.808 184.727 49.664 184.301 49.664C183.959 49.664 183.613 49.7547 183.261 49.936C182.909 50.1067 182.599 50.2933 182.333 50.496C182.237 52.704 182.189 54.016 182.189 54.432C182.189 54.7627 182.231 54.9973 182.317 55.136C182.402 55.264 182.551 55.328 182.765 55.328C182.882 55.328 182.994 55.3227 183.101 55.312C183.207 55.3013 183.282 55.296 183.325 55.296L183.357 55.36L183.213 56.048C183.117 56.0373 182.93 56.0267 182.653 56.016C182.375 56.0053 182.077 56 181.757 56C181.405 56 181.079 56.0053 180.781 56.016C180.482 56.0267 180.279 56.032 180.173 56.032L180.269 55.376C180.578 55.344 180.791 55.264 180.909 55.136C181.037 55.008 181.101 54.7947 181.101 54.496V50.592C181.101 50.2293 181.042 49.9787 180.925 49.84C180.807 49.6907 180.605 49.616 180.317 49.616H180.141L180.093 49.552L180.141 49.024C180.599 48.9493 181.053 48.864 181.501 48.768C181.959 48.6613 182.253 48.592 182.381 48.56L182.477 48.688C182.455 48.752 182.423 48.8907 182.381 49.104C182.338 49.3067 182.311 49.52 182.301 49.744L182.333 49.792C183.527 48.9813 184.311 48.576 184.685 48.576C185.197 48.576 185.629 48.688 185.981 48.912C186.333 49.1253 186.583 49.4347 186.733 49.84C187.117 49.5627 187.549 49.2853 188.029 49.008C188.509 48.72 188.882 48.576 189.149 48.576C189.821 48.576 190.354 48.7627 190.749 49.136C191.143 49.5093 191.341 50.0107 191.341 50.64C191.341 50.7467 191.309 51.2373 191.245 52.112C191.159 53.2213 191.117 53.9947 191.117 54.432C191.117 54.7627 191.159 54.9973 191.245 55.136C191.33 55.264 191.479 55.328 191.693 55.328C191.81 55.328 191.922 55.3227 192.029 55.312C192.135 55.3013 192.21 55.296 192.253 55.296L192.285 55.36L192.141 56.048C192.045 56.0373 191.858 56.0267 191.581 56.016C191.303 56.0053 191.005 56 190.685 56C190.407 56 190.098 56.0107 189.757 56.032C189.426 56.064 189.207 56.0853 189.101 56.096L189.181 55.44C189.49 55.3867 189.709 55.2907 189.837 55.152C189.965 55.0133 190.029 54.7947 190.029 54.496L190.093 51.328C190.093 50.7947 189.975 50.384 189.741 50.096C189.517 49.808 189.191 49.664 188.765 49.664C188.21 49.664 187.565 49.9307 186.829 50.464L186.653 54.432C186.653 54.7413 186.695 54.9707 186.781 55.12C186.866 55.2587 187.01 55.328 187.213 55.328C187.33 55.328 187.442 55.3227 187.549 55.312C187.655 55.3013 187.73 55.296 187.773 55.296L187.805 55.36L187.677 56.048C187.581 56.0373 187.399 56.0267 187.133 56.016C186.866 56.0053 186.573 56 186.253 56C185.975 56 185.655 56.0267 185.293 56.08C184.941 56.1333 184.711 56.1707 184.605 56.192L184.669 55.536Z" fill="url(#paint1_linear)"/>
<defs>
<linearGradient id="paint0_linear" x1="126.5" y1="5" x2="126.5" y2="51.0303" gradientUnits="userSpaceOnUse">
<stop stop-color="#37C7DE"/>
<stop offset="1" stop-color="white"/>
</linearGradient>
<linearGradient id="paint1_linear" x1="170" y1="40" x2="170" y2="60.6667" gradientUnits="userSpaceOnUse">
<stop stop-color="#37C7DE"/>
<stop offset="1" stop-color="white"/>
</linearGradient>
</defs>
</svg>
